<?xml version="1.0" encoding="UTF-8"?>
<svg xmlns="http://www.w3.org/2000/svg" width="500" height="400" viewBox="0 0 500 400" fill="none">
  <!-- Background shapes -->
  <rect x="50" y="50" width="400" height="300" rx="20" fill="#f0f9ff" />
  <rect x="70" y="80" width="360" height="240" rx="10" fill="white" stroke="#e0f2fe" stroke-width="2" />
  
  <!-- Document with text lines -->
  <rect x="100" y="120" width="200" height="160" rx="5" fill="white" stroke="#94a3b8" stroke-width="2" />
  <line x1="120" y1="150" x2="280" y2="150" stroke="#e2e8f0" stroke-width="3" />
  <line x1="120" y1="170" x2="280" y2="170" stroke="#e2e8f0" stroke-width="3" />
  <line x1="120" y1="190" x2="280" y2="190" stroke="#e2e8f0" stroke-width="3" />
  <line x1="120" y1="210" x2="280" y2="210" stroke="#e2e8f0" stroke-width="3" />
  <line x1="120" y1="230" x2="220" y2="230" stroke="#e2e8f0" stroke-width="3" />
  
  <!-- Highlighted text with magnifying glass -->
  <rect x="160" y="188" width="80" height="14" rx="2" fill="#fecaca" />
  
  <!-- Magnifying glass -->
  <circle cx="350" cy="180" r="40" fill="white" stroke="#0ea5e9" stroke-width="3" />
  <circle cx="350" cy="180" r="30" fill="#e0f2fe" />
  <line x1="315" y1="215" x2="290" y2="240" stroke="#0ea5e9" stroke-width="4" stroke-linecap="round" />
  
  <!-- Warning icon -->
  <circle cx="390" cy="120" r="20" fill="#fef3c7" />
  <path d="M390 105V125M390 135V135.1" stroke="#f59e0b" stroke-width="4" stroke-linecap="round" />
  
  <!-- Check icon -->
  <circle cx="390" cy="240" r="20" fill="#dcfce7" />
  <path d="M380 240L387 247L400 234" stroke="#22c55e" stroke-width="4" stroke-linecap="round" stroke-linejoin="round" />
</svg> 